<svg xmlns="http://www.w3.org/2000/svg" width="20" height="24" viewBox="0 0 28 34">
  <!-- Pointing hand cursor — ML stroke/fill style -->
  <path d="M10 13 L10 4.5 C10 2.5 11.5 1 13.5 1 C15.5 1 17 2.5 17 4.5 L17 13
    L17 11.5 C17 9.5 18.5 8 20.5 8 C22.5 8 24 9.5 24 11.5 L24 14
    L24 12.5 C24 10.5 25 9.5 26 10.5 L26 14
    L26 22 C26 28 22 32 16 32 L14 32 C8 32 4 28 4 22 L4 19
    C4 17 5.5 15.5 7.5 15.5 C8.5 15.5 9.5 16 10 17 Z"
    fill="none" stroke="#000" stroke-width="4" stroke-linejoin="round" stroke-linecap="round"/>
  <path d="M10 13 L10 4.5 C10 2.5 11.5 1 13.5 1 C15.5 1 17 2.5 17 4.5 L17 13
    L17 11.5 C17 9.5 18.5 8 20.5 8 C22.5 8 24 9.5 24 11.5 L24 14
    L24 12.5 C24 10.5 25 9.5 26 10.5 L26 14
    L26 22 C26 28 22 32 16 32 L14 32 C8 32 4 28 4 22 L4 19
    C4 17 5.5 15.5 7.5 15.5 C8.5 15.5 9.5 16 10 17 Z"
    fill="#E8E0D4" stroke="#E8E0D4" stroke-width="1.5" stroke-linejoin="round" stroke-linecap="round"/>
</svg>